<svg width="55" height="56" viewBox="0 0 55 56" fill="none" xmlns="http://www.w3.org/2000/svg">
<path d="M27.3701 2.49609C41.1312 2.49632 52.3758 13.964 52.376 28.2217C52.376 42.4795 41.1314 53.948 27.3701 53.9482C13.6087 53.9482 2.36328 42.4796 2.36328 28.2217C2.36347 13.9639 13.6088 2.49609 27.3701 2.49609Z" stroke="white" stroke-width="4"/>
<ellipse cx="7.20034" cy="6.18978" rx="7.20034" ry="6.18978" transform="matrix(-0.722997 0.690851 -0.671657 -0.740862 50.4512 34.71)" fill="white"/>
<ellipse cx="7.19048" cy="6.19822" rx="7.19048" ry="6.19822" transform="matrix(0.758277 0.651932 -0.63209 0.774895 34.333 8.54541)" fill="white"/>
<ellipse cx="5.81997" cy="5.01683" rx="5.81997" ry="5.01683" transform="matrix(0.758277 0.651932 -0.63209 0.774895 25.8721 21.0669)" fill="white"/>
<ellipse cx="7.13717" cy="6.24342" rx="7.13717" ry="6.24342" transform="matrix(0.928081 -0.37238 0.355774 0.934572 9.94629 13.8604)" fill="white"/>
<ellipse cx="7.26891" cy="6.1305" rx="7.26891" ry="6.1305" transform="matrix(-0.406362 -0.913712 0.905459 -0.424435 11.4971 43.1318)" fill="white"/>
<ellipse cx="7.12259" cy="6.25566" rx="7.12259" ry="6.25566" transform="matrix(-0.969928 0.243391 -0.231609 -0.972809 35.373 49.3369)" fill="white"/>
</svg>
